
General
Complete name                    : Ip Man 2008.mp4
Format                           : MPEG-4
Format profile                   : Base Media
Codec ID                         : isom
File size                        : 350 MiB
Duration                         : 1h 45mn
Overall bit rate                 : 463 Kbps
Encoded date                     : UTC 2010-05-07 23:39:19
Tagged date                      : UTC 2010-05-07 23:39:19

Video
ID                               : 1
Format                           : AVC
Format/Info                      : Advanced Video Codec
Format profile                   : High@L4.1
Format settings, CABAC           : Yes
Format settings, ReFrames        : 5 frames
Codec ID                         : avc1
Codec ID/Info                    : Advanced Video Coding
Duration                         : 1h 45mn
Bit rate mode                    : Variable
Bit rate                         : 394 Kbps
Nominal bit rate                 : 398 Kbps
Maximum bit rate                 : 2 377 Kbps
Width                            : 544 pixels
Height                           : 224 pixels
Display aspect ratio             : 2.40:1
Frame rate mode                  : Constant
Frame rate                       : 23.976 fps
Resolution                       : 8 bits
Colorimetry                      : 4:2:0
Scan type                        : Progressive
Bits/(Pixel*Frame)               : 0.135
Stream size                      : 298 MiB (85%)
Writing library                  : x264 core 94 r1570 d9db8b3
Encoding settings                : cabac=1 / ref=5 / deblock=1:0:0 / analyse=0x3:0x113 / me=umh / subme=8 / psy=1 / 

psy_rd=1.00:0.00 / mixed_ref=1 / me_range=16 / chroma_me=1 / trellis=1 / 8x8dct=1 / cqm=0 / deadzone=21,11 / 

fast_pskip=1 / chroma_qp_offset=-2 / threads=3 / sliced_threads=0 / nr=0 / decimate=1 / interlaced=0 / 

constrained_intra=0 / bframes=3 / b_pyramid=2 / b_adapt=2 / b_bias=0 / direct=3 / wpredb=1 / wpredp=2 / keyint=250 / 

keyint_min=25 / scenecut=40 / intra_refresh=0 / rc_lookahead=50 / rc=abr / mbtree=1 / bitrate=398 / ratetol=1.0 / 

qcomp=0.60 / qpmin=10 / qpmax=51 / qpstep=4 / ip_ratio=1.40 / aq=1:1.00
Encoded date                     : UTC 2010-05-07 19:19:21
Tagged date                      : UTC 2010-05-07 23:39:42

Audio
ID                               : 2
Format                           : AAC
Format/Info                      : Advanced Audio Codec
Format version                   : Version 4
Format profile                   : LC
Format settings, SBR             : Yes
Format settings, PS              : No
Codec ID                         : 40
Duration                         : 1h 45mn
Bit rate mode                    : Variable
Bit rate                         : 66.15 Kbps
Maximum bit rate                 : 106 Kbps
Channel(s)                       : 2 channels
Channel positions                : L R
Sampling rate                    : 48.0 KHz
Stream size                      : 49.1 MiB (14%)
Encoded date                     : UTC 2010-05-07 23:39:40
Tagged date                      : UTC 2010-05-07 23:39:42


 
http://img191.imageshack.us/img191/3152/ipman2008mp4thumbs20100.png 
http://img96.imageshack.us/img96/4108/1536xl1.jpg

Don't forget to say THANKS if you like the post

SEED and ENJOY WATCHING! :)

i recommend to play this in VLC Player or Burn using ConvertXtoDvD

please Seed so i can move on to my next upload ^^ 
http://img710.imageshack.us/img710/843/63781002.jpg